<?xml version="1.0" standalone="no"?>
<!DOCTYPE svg PUBLIC "-//W3C//DTD SVG 20010904//EN"
 "http://www.w3.org/TR/2001/REC-SVG-20010904/DTD/svg10.dtd">
<svg version="1.0" xmlns="http://www.w3.org/2000/svg"
 width="167.000000pt" height="47.000000pt" viewBox="0 0 167.000000 47.000000"
 preserveAspectRatio="xMidYMid meet">

<g transform="translate(0.000000,47.000000) scale(0.100000,-0.100000)"
fill="#000000" stroke="none">
<path d="M1389 433 c25 -49 -42 -97 -76 -55 -8 9 -11 10 -7 2 10 -18 12 -100
3 -100 -4 0 -9 10 -12 22 -10 35 -16 17 -8 -22 4 -23 10 -30 15 -22 4 7 12 10
17 7 5 -4 9 1 9 9 0 9 5 16 11 16 6 0 8 -7 5 -16 -3 -9 -6 -18 -6 -20 0 -3
-12 -9 -27 -15 -18 -7 -23 -13 -16 -20 8 -8 18 -7 34 2 22 12 88 38 98 39 12
0 -45 -50 -75 -66 -25 -13 -34 -24 -30 -37 3 -12 -7 -24 -35 -40 -21 -12 -39
-25 -39 -29 0 -13 43 -8 70 7 38 22 50 18 50 -16 0 -27 -3 -30 -22 -24 -22 7
-21 5 5 -21 23 -25 29 -27 37 -14 6 8 9 35 7 60 -2 44 -1 45 36 54 41 11 51
36 13 36 -37 0 -39 26 -3 56 48 40 52 52 22 64 -25 10 -25 10 -10 46 8 21 13
39 11 42 -8 7 -26 -9 -26 -24 0 -8 -4 -14 -10 -14 -5 0 -10 5 -10 10 0 6 -7
10 -15 10 -19 0 -19 9 2 32 16 18 15 20 -6 41 l-23 22 11 -22z m-9 -113 c-11
-21 -45 -27 -55 -10 -10 16 1 25 34 27 28 2 30 0 21 -17z"/>
<path d="M708 397 c-43 -12 -78 -24 -78 -29 0 -4 12 -3 26 2 36 14 44 13 44
-9 0 -26 -15 -34 -40 -21 -17 9 -20 8 -20 -10 0 -17 5 -20 36 -16 20 3 42 10
47 15 6 6 16 11 22 11 15 -1 -35 -40 -51 -40 -7 0 -16 -5 -20 -11 -4 -8 1 -9
17 -5 22 7 23 6 6 -8 -18 -14 -18 -14 0 -19 16 -4 16 -5 1 -6 -12 -1 -18 -9
-18 -26 0 -19 -9 -29 -35 -42 -43 -20 -46 -35 -5 -23 33 10 33 10 34 -59 1
-26 6 -46 14 -48 9 -4 12 13 12 61 0 61 2 67 25 78 30 14 34 32 4 23 -20 -7
-20 -6 -4 24 9 18 14 35 11 40 -3 4 6 19 19 31 33 31 33 52 0 48 -34 -4 -31
15 4 25 31 8 47 22 34 30 -5 2 -43 -5 -85 -16z"/>
<path d="M552 387 c22 -18 25 -25 16 -42 -9 -17 -7 -16 16 4 14 14 26 26 26
27 0 7 -59 34 -72 34 -7 -1 -1 -11 14 -23z"/>
<path d="M182 358 c3 -7 14 -17 26 -23 12 -5 22 -15 22 -22 0 -7 5 -13 10 -13
18 0 11 26 -13 48 -25 24 -51 29 -45 10z"/>
<path d="M300 325 c0 -34 -5 -47 -22 -59 -20 -14 -18 -21 5 -17 4 0 7 -15 7
-34 0 -21 -5 -35 -12 -35 -7 0 -25 -14 -40 -32 -24 -29 -27 -31 -28 -12 0 12
9 33 20 46 19 24 19 26 1 42 -9 9 -19 16 -22 16 -2 0 -5 -32 -6 -71 -1 -53 2
-71 13 -76 19 -7 44 15 37 33 -3 9 2 14 16 14 12 0 21 -4 21 -10 0 -5 5 -10
10 -10 6 0 10 29 10 67 0 49 5 71 17 85 13 15 14 21 5 27 -8 5 -11 17 -7 33 5
18 2 27 -9 31 -13 5 -16 -2 -16 -38z"/>
<path d="M955 338 c-2 -7 -6 -30 -10 -50 -4 -29 -13 -42 -35 -53 -38 -19 -39
-43 -2 -47 l27 -3 -27 -27 c-15 -16 -36 -28 -48 -28 -11 0 -20 -4 -20 -10 0
-32 94 11 112 51 7 16 16 29 21 29 4 0 27 -18 51 -40 37 -34 49 -40 87 -39
l44 0 -40 16 c-22 9 -64 34 -94 57 -52 39 -53 40 -32 56 11 8 31 23 43 33 l23
18 -25 -4 c-14 -3 -33 -8 -43 -12 -16 -7 -18 -4 -12 29 5 24 4 36 -4 36 -6 0
-13 -6 -16 -12z"/>
<path d="M395 304 c-18 -20 -24 -35 -21 -50 4 -13 2 -26 -4 -29 -5 -3 -10 1
-10 9 0 24 -17 19 -24 -6 -8 -33 -7 -71 3 -87 8 -13 12 -13 26 -1 15 12 19 11
35 -10 23 -30 26 -22 34 70 3 36 7 78 8 94 4 39 -16 43 -47 10z m6 -47 c-18
-18 -25 2 -10 30 14 26 14 26 17 4 2 -13 -1 -28 -7 -34z"/>
<path d="M536 313 c-8 -8 17 -43 31 -43 7 0 13 2 13 5 0 10 -38 43 -44 38z"/>
<path d="M608 307 c-6 -16 1 -37 13 -37 12 0 12 37 0 44 -5 3 -11 0 -13 -7z"/>
<path d="M640 236 c0 -8 5 -18 10 -21 6 -3 10 3 10 14 0 12 -4 21 -10 21 -5 0
-10 -6 -10 -14z"/>
<path d="M537 177 c-21 -32 -22 -47 -2 -47 8 0 17 11 21 25 10 39 0 50 -19 22z"/>
<path d="M1255 181 c-3 -6 -11 -8 -17 -5 -16 10 -28 -17 -17 -38 14 -26 23
-22 37 14 12 31 10 49 -3 29z"/>
</g>
</svg>
